# xmcd
#
# Track frame offsets:
#	150
#	10212
#	22318
#	37567
#	50961
#	65912
#	78739
#	92095
#	106627
#	118011
#	133327
#	145338
#	156790
#	170763
#	183260
#	197383
#	211818
#	224761
#	235132
#	248023
#	261343
#	274801
#
# Disc length: 3848 seconds
#
# Revision: 1
# Processed by: cddbd v1.5.1PL2 Copyright (c) Steve Scherf et al.
# Submitted via: audiograbber 1.83.01
#
DISCID=4a0f0616
DTITLE=Muddy Waters - 1951-1954
DYEAR=1900
DGENRE=Blues
TTITLE0=Evans shuffle
TTITLE1=long distance call
TTITLE2=honey bee
TTITLE3=she moves me
TTITLE4=still a fool
TTITLE5=stuff you gotta watch
TTITLE6=all night long
TTITLE7=please have mercy
TTITLE8=gone to main street
TTITLE9=standing around crying
TTITLE10=my life is ruined
TTITLE11=she's all right
TTITLE12=sad sad day
TTITLE13=turn the lamp down low
TTITLE14=mad love
TTITLE15=blow wind blow
TTITLE16=I'm your hoochie coochie man
TTITLE17=she's so pretty
TTITLE18=just make love to me
TTITLE19=oh yeah
TTITLE20=I don't know why
TTITLE21=I'm ready
EXTD=
EXTT0=
EXTT1=
EXTT2=
EXTT3=
EXTT4=
EXTT5=
EXTT6=
EXTT7=
EXTT8=
EXTT9=
EXTT10=
EXTT11=
EXTT12=
EXTT13=
EXTT14=
EXTT15=
EXTT16=
EXTT17=
EXTT18=
EXTT19=
EXTT20=
EXTT21=
PLAYORDER=
